<svg xmlns="http://www.w3.org/2000/svg" xmlns:xlink="http://www.w3.org/1999/xlink" width="500" zoomAndPan="magnify" viewBox="0 0 375 374.999991" height="500" preserveAspectRatio="xMidYMid meet" version="1.0"><defs><clipPath id="9aff3e9464"><path d="M 8.492188 0 L 366.242188 0 L 366.242188 375 L 8.492188 375 Z M 8.492188 0 " clip-rule="nonzero"/></clipPath><clipPath id="e09f6b561a"><path d="M 39 36 L 366.242188 36 L 366.242188 358 L 39 358 Z M 39 36 " clip-rule="nonzero"/></clipPath><clipPath id="44dc50edf9"><path d="M 8.492188 22 L 326 22 L 326 375 L 8.492188 375 Z M 8.492188 22 " clip-rule="nonzero"/></clipPath></defs><g clip-path="url(#9aff3e9464)"><path fill="#fbeeec" d="M 365.800781 252.597656 C 365.800781 257.808594 361.582031 262.035156 356.375 262.035156 C 355.183594 262.035156 354.050781 261.804688 353.003906 261.402344 C 352.878906 266.328125 348.988281 270.308594 344.101562 270.574219 L 343.820312 275.46875 L 343.964844 275.417969 C 361.679688 303.734375 353.15625 374.921875 353.15625 374.921875 L 303.757812 374.921875 C 303.757812 374.921875 303.753906 374.851562 303.75 374.753906 C 302.59375 374.625 301.433594 374.402344 300.277344 374.050781 L 245.464844 352.539062 L 236.746094 352.523438 C 231.3125 352.820312 226.039062 350.617188 222.4375 346.539062 L 219.757812 343.511719 L 205.558594 348.929688 C 204.359375 349.386719 203.011719 348.867188 202.425781 347.726562 C 201.835938 346.566406 202.222656 345.148438 203.320312 344.453125 L 221.664062 332.847656 C 223.546875 331.65625 225.839844 331.320312 227.984375 331.917969 L 248.792969 337.734375 L 248.804688 337.6875 L 302.34375 340.832031 L 302.816406 339.695312 C 302.789062 334.140625 302.855469 329.066406 303.09375 325.527344 C 304.980469 297.65625 319.519531 284.289062 319.519531 284.289062 L 319.695312 278.640625 C 319.765625 276.277344 318.199219 274.175781 315.910156 273.578125 L 310.171875 272.074219 C 307.941406 271.363281 306.574219 269.121094 306.96875 266.8125 L 308.203125 259.535156 C 308.441406 258.144531 308.085938 256.714844 307.226562 255.59375 L 305.699219 253.605469 C 304.554688 252.226562 304.769531 249.9375 306.402344 249.199219 C 307.003906 248.929688 307.636719 248.609375 308.265625 248.265625 C 307.921875 247.285156 307.722656 246.238281 307.722656 245.140625 C 307.722656 242.59375 308.734375 240.289062 310.375 238.589844 C 307.191406 237.074219 304.980469 233.835938 304.980469 230.074219 C 304.980469 224.863281 309.203125 220.636719 314.410156 220.636719 C 315.945312 220.636719 317.390625 221.011719 318.671875 221.664062 C 318.671875 221.644531 318.667969 221.628906 318.667969 221.609375 C 318.667969 216.398438 322.890625 212.171875 328.097656 212.171875 C 332.464844 212.171875 336.125 215.144531 337.199219 219.175781 C 338.742188 216.066406 341.9375 213.925781 345.640625 213.925781 C 350.847656 213.925781 355.070312 218.148438 355.070312 223.359375 C 355.070312 224.488281 354.863281 225.5625 354.5 226.5625 C 355.238281 226.378906 356.011719 226.265625 356.808594 226.265625 C 362.015625 226.265625 366.238281 230.492188 366.238281 235.703125 C 366.238281 239.496094 363.996094 242.757812 360.773438 244.253906 C 363.761719 245.835938 365.800781 248.976562 365.800781 252.597656 Z M 306.367188 238.28125 C 306.367188 238.289062 306.371094 238.289062 306.375 238.292969 C 306.386719 238.226562 306.402344 238.160156 306.417969 238.089844 C 306.402344 238.15625 306.378906 238.21875 306.367188 238.28125 Z M 245.464844 355.070312 L 245.464844 354.816406 C 245.464844 353.578125 244.460938 352.570312 243.222656 352.570312 L 160.664062 352.570312 L 142.445312 272.382812 C 142.171875 271.175781 140.96875 270.417969 139.757812 270.691406 C 138.550781 270.96875 137.792969 272.171875 138.070312 273.378906 L 157.140625 357.320312 L 157.203125 357.304688 L 157.203125 357.320312 L 116.058594 357.320312 C 119.234375 356.242188 121.53125 353.265625 121.53125 349.726562 L 121.53125 329.558594 C 121.53125 329.558594 130.023438 327.015625 133.230469 319.917969 C 133.230469 319.917969 127.644531 316.078125 119.382812 319.457031 C 119.382812 319.457031 123.972656 313.996094 122.5 304.695312 C 122.5 304.695312 114.824219 305.582031 110.546875 313.996094 C 110.546875 313.996094 111.433594 303.660156 104.242188 297.902344 C 97.050781 303.660156 97.9375 313.996094 97.9375 313.996094 C 93.65625 305.582031 85.984375 304.695312 85.984375 304.695312 C 84.511719 313.996094 89.101562 319.457031 89.101562 319.457031 C 80.839844 316.078125 75.253906 319.917969 75.253906 319.917969 C 78.460938 327.011719 86.949219 329.558594 86.949219 329.558594 L 86.949219 349.726562 C 86.949219 353.269531 89.25 356.242188 92.425781 357.320312 L 75.261719 357.320312 L 75.261719 374.464844 L 257.4375 374.464844 L 257.4375 357.320312 L 243.222656 357.320312 C 244.460938 357.320312 245.464844 356.3125 245.464844 355.070312 Z M 59.179688 260.589844 C 31.1875 260.589844 8.492188 237.878906 8.492188 209.867188 C 8.492188 181.851562 31.1875 159.140625 59.179688 159.140625 C 86.898438 159.140625 109.402344 181.40625 109.847656 209.035156 L 157.234375 209.035156 C 156.808594 185.332031 169.683594 164.390625 189.082031 153.484375 L 156.171875 87.621094 C 148.554688 94.125 138.675781 98.0625 127.875 98.0625 C 103.78125 98.0625 84.25 78.515625 84.25 54.402344 C 84.25 30.292969 103.78125 10.746094 127.875 10.746094 C 151.695312 10.746094 171.039062 29.847656 171.480469 53.574219 L 244.023438 53.574219 C 244.015625 53.15625 243.992188 52.742188 243.992188 52.324219 C 243.992188 23.480469 267.359375 0.0976562 296.179688 0.0976562 C 325 0.0976562 348.367188 23.480469 348.367188 52.324219 C 348.367188 81.167969 325 104.546875 296.179688 104.546875 C 289.207031 104.546875 282.554688 103.167969 276.472656 100.683594 L 250.097656 153.472656 C 268.449219 163.792969 281.140625 183.164062 281.925781 205.757812 C 283.125 240.214844 256.1875 269.117188 221.757812 270.316406 C 187.527344 271.507812 158.789062 244.863281 157.28125 210.695312 L 109.847656 210.695312 C 109.40625 238.324219 86.898438 260.589844 59.179688 260.589844 Z M 190.53125 152.675781 C 198.585938 148.425781 207.703125 145.882812 217.414062 145.542969 C 228.675781 145.152344 239.332031 147.785156 248.632812 152.695312 L 274.945312 100.027344 C 257.546875 92.261719 245.175781 75.253906 244.078125 55.230469 L 171.480469 55.230469 C 171.25 67.585938 165.902344 78.679688 157.457031 86.484375 Z M 190.53125 152.675781 " fill-opacity="1" fill-rule="nonzero"/></g><path fill="#f26b6d" d="M 353.15625 374.921875 L 303.757812 374.921875 C 303.757812 374.921875 303.753906 374.851562 303.75 374.753906 C 302.59375 374.628906 301.433594 374.402344 300.277344 374.050781 L 245.464844 352.539062 L 248.792969 337.734375 L 248.804688 337.6875 L 302.347656 340.832031 L 302.816406 339.695312 C 302.789062 334.140625 302.855469 329.066406 303.09375 325.527344 C 304.980469 297.65625 319.519531 284.289062 319.519531 284.289062 L 343.820312 275.472656 L 343.96875 275.417969 C 361.679688 303.734375 353.15625 374.921875 353.15625 374.921875 Z M 353.15625 374.921875 " fill-opacity="1" fill-rule="nonzero"/><path fill="#fec045" d="M 240.457031 213.164062 C 245.664062 207.871094 248.886719 200.613281 248.886719 192.597656 C 248.886719 176.402344 235.769531 163.273438 219.585938 163.273438 C 203.402344 163.273438 190.285156 176.402344 190.285156 192.597656 C 190.285156 200.613281 193.507812 207.871094 198.714844 213.164062 L 198.710938 213.164062 C 208.597656 223.683594 206.742188 229.25 206.742188 229.25 L 232.429688 229.25 C 232.429688 229.25 230.574219 223.683594 240.460938 213.164062 Z M 219.585938 172.316406 C 208.222656 172.316406 198.976562 181.566406 198.976562 192.9375 C 198.976562 193.398438 198.605469 193.769531 198.148438 193.769531 C 197.691406 193.769531 197.320312 193.398438 197.320312 192.9375 C 197.320312 180.652344 207.308594 170.65625 219.585938 170.65625 C 220.042969 170.65625 220.414062 171.027344 220.414062 171.488281 C 220.414062 171.945312 220.042969 172.316406 219.585938 172.316406 Z M 127.875 10.746094 C 103.78125 10.746094 84.25 30.289062 84.25 54.402344 C 84.25 78.515625 103.78125 98.058594 127.875 98.058594 C 138.675781 98.058594 148.554688 94.125 156.171875 87.617188 C 156.605469 87.246094 157.035156 86.871094 157.457031 86.480469 C 165.902344 78.679688 171.25 67.582031 171.480469 55.230469 C 171.488281 54.953125 171.503906 54.679688 171.503906 54.402344 C 171.503906 54.125 171.488281 53.851562 171.480469 53.574219 C 171.039062 29.847656 151.691406 10.746094 127.875 10.746094 Z M 127.875 82.28125 C 112.515625 82.28125 100.019531 69.773438 100.019531 54.402344 C 100.019531 39.03125 112.515625 26.523438 127.875 26.523438 C 143.238281 26.523438 155.734375 39.03125 155.734375 54.402344 C 155.734375 69.773438 143.238281 82.28125 127.875 82.28125 Z M 47.230469 191.980469 L 71.132812 191.980469 L 71.132812 194.816406 L 77.976562 194.816406 C 78.433594 194.816406 78.804688 195.1875 78.804688 195.644531 C 78.804688 196.101562 78.433594 196.472656 77.976562 196.472656 L 71.132812 196.472656 L 71.132812 202.894531 L 77.976562 202.894531 C 78.433594 202.894531 78.804688 203.265625 78.804688 203.722656 C 78.804688 204.183594 78.433594 204.554688 77.976562 204.554688 L 71.132812 204.554688 L 71.132812 210.972656 L 77.976562 210.972656 C 78.433594 210.972656 78.804688 211.34375 78.804688 211.804688 C 78.804688 212.261719 78.433594 212.632812 77.976562 212.632812 L 71.132812 212.632812 L 71.132812 219.054688 L 77.976562 219.054688 C 78.433594 219.054688 78.804688 219.421875 78.804688 219.882812 C 78.804688 220.339844 78.433594 220.710938 77.976562 220.710938 L 71.132812 220.710938 L 71.132812 227.753906 L 83.40625 227.753906 L 83.40625 179.695312 L 47.230469 179.695312 Z M 52.660156 186.738281 L 77.976562 186.738281 C 78.433594 186.738281 78.804688 187.105469 78.804688 187.566406 C 78.804688 188.023438 78.433594 188.394531 77.976562 188.394531 L 52.660156 188.394531 C 52.203125 188.394531 51.832031 188.023438 51.832031 187.566406 C 51.832031 187.105469 52.203125 186.738281 52.660156 186.738281 Z M 52.660156 186.738281 " fill-opacity="1" fill-rule="nonzero"/><g clip-path="url(#e09f6b561a)"><path fill="#4724e3" d="M 109.847656 210.695312 C 109.855469 210.417969 109.871094 210.144531 109.871094 209.867188 C 109.871094 209.585938 109.855469 209.3125 109.847656 209.035156 L 157.234375 209.035156 C 157.242188 209.390625 157.230469 209.742188 157.246094 210.101562 C 157.25 210.300781 157.269531 210.496094 157.28125 210.695312 Z M 190.53125 152.675781 L 157.457031 86.484375 C 157.035156 86.871094 156.605469 87.246094 156.171875 87.617188 L 189.082031 153.484375 C 189.5625 153.214844 190.039062 152.933594 190.53125 152.675781 Z M 244.078125 55.230469 C 244.046875 54.683594 244.039062 54.128906 244.023438 53.574219 L 171.480469 53.574219 C 171.488281 53.851562 171.503906 54.125 171.503906 54.402344 C 171.503906 54.679688 171.488281 54.953125 171.480469 55.230469 Z M 248.632812 152.695312 C 249.121094 152.953125 249.613281 153.203125 250.097656 153.472656 L 276.472656 100.683594 C 275.960938 100.472656 275.453125 100.253906 274.949219 100.027344 Z M 360.773438 244.253906 C 363.996094 242.757812 366.238281 239.496094 366.238281 235.703125 C 366.238281 230.492188 362.015625 226.265625 356.808594 226.265625 C 356.011719 226.265625 355.238281 226.378906 354.5 226.5625 C 354.863281 225.5625 355.070312 224.488281 355.070312 223.359375 C 355.070312 218.148438 350.847656 213.925781 345.640625 213.925781 C 341.9375 213.925781 338.742188 216.066406 337.199219 219.175781 C 336.125 215.144531 332.464844 212.171875 328.097656 212.171875 C 322.890625 212.171875 318.667969 216.398438 318.667969 221.609375 C 318.667969 221.628906 318.671875 221.644531 318.671875 221.664062 C 317.390625 221.011719 315.945312 220.636719 314.410156 220.636719 C 309.203125 220.636719 304.980469 224.863281 304.980469 230.074219 C 304.980469 233.835938 307.1875 237.074219 310.375 238.589844 C 308.734375 240.289062 307.722656 242.59375 307.722656 245.140625 C 307.722656 246.238281 307.921875 247.289062 308.265625 248.265625 C 310.625 246.980469 312.921875 245.253906 313.261719 243.453125 C 313.65625 241.375 314.007812 238.257812 315.105469 234.804688 C 315.402344 233.863281 315.855469 232.917969 316.386719 232.003906 C 316.382812 231.996094 316.382812 231.992188 316.382812 231.988281 C 316.417969 231.925781 316.464844 231.867188 316.5 231.804688 C 316.460938 231.871094 316.425781 231.9375 316.386719 232.003906 C 316.386719 232.003906 325.445312 240.425781 331.402344 240 L 333.175781 250.910156 C 334.871094 249.703125 337.644531 248.367188 341.191406 248.96875 C 347.238281 249.996094 347.5625 256.105469 344.96875 259.402344 C 343.664062 261.0625 342.183594 262.089844 340.714844 262.726562 L 344.101562 270.574219 C 348.988281 270.308594 352.878906 266.328125 353 261.402344 C 354.050781 261.804688 355.183594 262.035156 356.371094 262.035156 C 361.578125 262.035156 365.800781 257.8125 365.800781 252.597656 C 365.800781 248.976562 363.761719 245.835938 360.773438 244.253906 Z M 306.375 238.296875 C 306.386719 238.226562 306.402344 238.160156 306.417969 238.09375 C 306.402344 238.15625 306.378906 238.21875 306.363281 238.285156 C 306.367188 238.289062 306.371094 238.289062 306.375 238.296875 Z M 243.222656 352.570312 L 160.664062 352.570312 L 142.445312 272.382812 C 142.171875 271.175781 140.96875 270.417969 139.757812 270.691406 C 138.550781 270.96875 137.792969 272.171875 138.070312 273.378906 L 157.140625 357.320312 L 157.203125 357.304688 L 157.203125 357.320312 L 243.222656 357.320312 C 244.460938 357.320312 245.464844 356.3125 245.464844 355.074219 L 245.464844 354.816406 C 245.464844 353.578125 244.460938 352.570312 243.222656 352.570312 Z M 235.890625 233.078125 C 235.890625 230.964844 234.175781 229.25 232.0625 229.25 L 207.109375 229.25 C 204.996094 229.25 203.28125 230.964844 203.28125 233.078125 C 203.28125 235.191406 204.996094 236.90625 207.109375 236.90625 C 204.996094 236.90625 203.28125 238.621094 203.28125 240.734375 C 203.28125 242.847656 204.996094 244.5625 207.109375 244.5625 C 204.996094 244.5625 203.28125 246.277344 203.28125 248.390625 C 203.28125 250.507812 204.996094 252.21875 207.109375 252.21875 L 232.0625 252.21875 C 234.175781 252.21875 235.890625 250.507812 235.890625 248.390625 C 235.890625 246.277344 234.175781 244.5625 232.0625 244.5625 C 234.175781 244.5625 235.890625 242.847656 235.890625 240.734375 C 235.890625 238.621094 234.175781 236.90625 232.0625 236.90625 C 234.175781 236.90625 235.890625 235.191406 235.890625 233.078125 Z M 86.953125 329.558594 L 86.953125 349.726562 C 86.953125 353.265625 89.25 356.242188 92.425781 357.316406 C 93.238281 357.59375 94.09375 357.777344 94.996094 357.777344 L 113.488281 357.777344 C 114.394531 357.777344 115.246094 357.59375 116.058594 357.316406 C 119.234375 356.238281 121.53125 353.265625 121.53125 349.726562 L 121.53125 329.558594 Z M 118.128906 60.472656 C 118.257812 60.472656 118.390625 60.441406 118.511719 60.378906 L 126.730469 56.09375 C 127.066406 56.320312 127.445312 56.484375 127.875 56.484375 C 129.023438 56.484375 129.957031 55.550781 129.957031 54.402344 C 129.957031 53.550781 129.441406 52.820312 128.707031 52.5 L 128.707031 37.105469 C 128.707031 36.648438 128.335938 36.277344 127.875 36.277344 C 127.417969 36.277344 127.046875 36.648438 127.046875 37.105469 L 127.046875 52.5 C 126.3125 52.820312 125.796875 53.550781 125.796875 54.402344 C 125.796875 54.5 125.839844 54.585938 125.855469 54.679688 L 117.746094 58.90625 C 117.339844 59.117188 117.183594 59.617188 117.394531 60.023438 C 117.542969 60.308594 117.832031 60.472656 118.128906 60.472656 Z M 77.976562 186.738281 L 52.660156 186.738281 C 52.203125 186.738281 51.832031 187.105469 51.832031 187.566406 C 51.832031 188.023438 52.203125 188.394531 52.660156 188.394531 L 77.976562 188.394531 C 78.433594 188.394531 78.804688 188.023438 78.804688 187.566406 C 78.804688 187.105469 78.433594 186.738281 77.976562 186.738281 Z M 77.976562 194.816406 L 71.132812 194.816406 L 71.132812 196.472656 L 77.976562 196.472656 C 78.433594 196.472656 78.804688 196.101562 78.804688 195.644531 C 78.804688 195.1875 78.433594 194.816406 77.976562 194.816406 Z M 77.976562 202.894531 L 71.132812 202.894531 L 71.132812 204.550781 L 77.976562 204.550781 C 78.433594 204.550781 78.804688 204.179688 78.804688 203.722656 C 78.804688 203.265625 78.433594 202.894531 77.976562 202.894531 Z M 77.976562 210.972656 L 71.132812 210.972656 L 71.132812 212.632812 L 77.976562 212.632812 C 78.433594 212.632812 78.804688 212.261719 78.804688 211.800781 C 78.804688 211.34375 78.433594 210.972656 77.976562 210.972656 Z M 77.976562 219.050781 L 71.132812 219.050781 L 71.132812 220.710938 L 77.976562 220.710938 C 78.433594 220.710938 78.804688 220.339844 78.804688 219.878906 C 78.804688 219.421875 78.433594 219.050781 77.976562 219.050781 Z M 65.699219 199.019531 L 40.386719 199.019531 C 39.929688 199.019531 39.558594 199.390625 39.558594 199.851562 C 39.558594 200.308594 39.929688 200.679688 40.386719 200.679688 L 65.699219 200.679688 C 66.160156 200.679688 66.53125 200.308594 66.53125 199.851562 C 66.53125 199.390625 66.160156 199.019531 65.699219 199.019531 Z M 65.699219 207.097656 L 40.386719 207.097656 C 39.929688 207.097656 39.558594 207.46875 39.558594 207.929688 C 39.558594 208.386719 39.929688 208.757812 40.386719 208.757812 L 65.699219 208.757812 C 66.160156 208.757812 66.53125 208.386719 66.53125 207.929688 C 66.53125 207.46875 66.160156 207.097656 65.699219 207.097656 Z M 65.699219 215.179688 L 40.386719 215.179688 C 39.929688 215.179688 39.558594 215.550781 39.558594 216.007812 C 39.558594 216.464844 39.929688 216.835938 40.386719 216.835938 L 65.699219 216.835938 C 66.160156 216.835938 66.53125 216.464844 66.53125 216.007812 C 66.53125 215.550781 66.160156 215.179688 65.699219 215.179688 Z M 65.699219 223.257812 L 40.386719 223.257812 C 39.929688 223.257812 39.558594 223.628906 39.558594 224.085938 C 39.558594 224.546875 39.929688 224.917969 40.386719 224.917969 L 65.699219 224.917969 C 66.160156 224.917969 66.53125 224.546875 66.53125 224.085938 C 66.53125 223.628906 66.160156 223.257812 65.699219 223.257812 Z M 65.699219 231.339844 L 40.386719 231.339844 C 39.929688 231.339844 39.558594 231.707031 39.558594 232.167969 C 39.558594 232.625 39.929688 232.996094 40.386719 232.996094 L 65.699219 232.996094 C 66.160156 232.996094 66.53125 232.625 66.53125 232.167969 C 66.53125 231.707031 66.160156 231.339844 65.699219 231.339844 Z M 65.699219 231.339844 " fill-opacity="1" fill-rule="nonzero"/></g><g clip-path="url(#44dc50edf9)"><path fill="#7b95f9" d="M 243.222656 357.320312 L 257.441406 357.320312 L 257.441406 374.464844 L 75.261719 374.464844 L 75.261719 357.320312 L 92.425781 357.320312 C 93.238281 357.59375 94.09375 357.777344 94.996094 357.777344 L 113.488281 357.777344 C 114.394531 357.777344 115.246094 357.59375 116.058594 357.320312 Z M 86.953125 329.558594 L 121.535156 329.558594 C 121.535156 329.558594 130.023438 327.011719 133.230469 319.917969 C 133.230469 319.917969 127.644531 316.078125 119.382812 319.457031 C 119.382812 319.457031 123.972656 313.996094 122.5 304.695312 C 122.5 304.695312 114.828125 305.582031 110.546875 313.996094 C 110.546875 313.996094 111.433594 303.660156 104.242188 297.902344 C 97.050781 303.660156 97.9375 313.996094 97.9375 313.996094 C 93.65625 305.582031 85.988281 304.695312 85.988281 304.695312 C 84.511719 313.996094 89.101562 319.457031 89.101562 319.457031 C 80.839844 316.078125 75.253906 319.917969 75.253906 319.917969 C 78.460938 327.011719 86.949219 329.554688 86.953125 329.558594 Z M 100.019531 54.402344 C 100.019531 39.03125 112.515625 26.523438 127.875 26.523438 C 143.238281 26.523438 155.734375 39.03125 155.734375 54.402344 C 155.734375 69.773438 143.238281 82.28125 127.875 82.28125 C 112.515625 82.28125 100.019531 69.773438 100.019531 54.402344 Z M 108.1875 54.402344 C 108.1875 65.285156 117.003906 74.105469 127.875 74.105469 C 138.75 74.105469 147.5625 65.285156 147.5625 54.402344 C 147.5625 43.519531 138.75 34.699219 127.875 34.699219 C 117.003906 34.699219 108.1875 43.519531 108.1875 54.402344 Z M 59.179688 260.589844 C 31.1875 260.589844 8.492188 237.878906 8.492188 209.867188 C 8.492188 181.851562 31.1875 159.140625 59.179688 159.140625 C 86.898438 159.140625 109.402344 181.40625 109.847656 209.035156 C 109.855469 209.3125 109.871094 209.585938 109.871094 209.867188 C 109.871094 210.144531 109.855469 210.417969 109.847656 210.695312 C 109.40625 238.324219 86.898438 260.589844 59.179688 260.589844 Z M 83.40625 179.695312 L 47.230469 179.695312 L 47.230469 191.980469 L 34.957031 191.980469 L 34.957031 240.035156 L 71.132812 240.035156 L 71.132812 227.75 L 83.410156 227.75 L 83.410156 179.695312 Z M 317.035156 62.511719 L 320.847656 68.355469 C 318.746094 70.953125 318.828125 70.851562 316.726562 73.453125 L 310.222656 70.941406 C 308.296875 72.097656 307.488281 72.585938 305.566406 73.742188 L 304.730469 80.667969 C 301.449219 81.308594 301.582031 81.28125 298.300781 81.921875 L 294.929688 75.8125 C 292.714844 75.464844 291.78125 75.316406 289.5625 74.964844 L 284.476562 79.734375 C 281.550781 78.113281 281.667969 78.179688 278.742188 76.558594 L 280.085938 69.714844 C 278.613281 68.019531 277.992188 67.304688 276.519531 65.609375 L 269.558594 65.992188 C 268.359375 62.867188 268.40625 62.992188 267.207031 59.871094 L 272.632812 55.488281 C 272.59375 53.242188 272.574219 52.296875 272.535156 50.050781 L 266.957031 45.867188 C 268.046875 42.703125 268.003906 42.828125 269.089844 39.664062 L 276.058594 39.800781 C 277.472656 38.054688 278.066406 37.316406 279.476562 35.570312 L 277.894531 28.777344 C 280.757812 27.054688 280.644531 27.121094 283.507812 25.398438 L 288.761719 29.984375 C 290.964844 29.554688 291.894531 29.375 294.097656 28.945312 L 297.246094 22.722656 C 300.546875 23.242188 300.417969 23.222656 303.71875 23.746094 L 304.796875 30.636719 C 306.761719 31.726562 307.585938 32.183594 309.550781 33.273438 L 315.960938 30.53125 C 318.15625 33.054688 318.070312 32.953125 320.261719 35.476562 L 316.660156 41.453125 C 317.464844 43.546875 317.804688 44.429688 318.609375 46.527344 L 325.28125 48.550781 C 325.34375 51.894531 325.339844 51.761719 325.398438 55.109375 L 318.804688 57.367188 C 318.074219 59.492188 317.765625 60.386719 317.035156 62.511719 Z M 304.738281 52.324219 C 304.738281 47.59375 300.90625 43.757812 296.179688 43.757812 C 291.453125 43.757812 287.621094 47.59375 287.621094 52.324219 C 287.621094 57.050781 291.453125 60.886719 296.179688 60.886719 C 300.90625 60.886719 304.738281 57.050781 304.738281 52.324219 Z M 304.738281 52.324219 " fill-opacity="1" fill-rule="nonzero"/></g></svg>