<svg xmlns="http://www.w3.org/2000/svg" xmlns:xlink="http://www.w3.org/1999/xlink" width="500" zoomAndPan="magnify" viewBox="0 0 375 374.999991" height="500" preserveAspectRatio="xMidYMid meet" version="1.0"><defs><clipPath id="621af99b69"><path d="M 0 11.304688 L 375 11.304688 L 375 363.804688 L 0 363.804688 Z M 0 11.304688 " clip-rule="nonzero"/></clipPath><clipPath id="667f7e0ec2"><path d="M 32 37 L 350 37 L 350 363.804688 L 32 363.804688 Z M 32 37 " clip-rule="nonzero"/></clipPath></defs><g clip-path="url(#621af99b69)"><path fill="#fbeeec" d="M 375.023438 331.390625 C 375.023438 332.941406 373.804688 334.222656 372.253906 334.289062 L 334.683594 334.167969 C 333.105469 327.070312 334.265625 321.433594 334.339844 321.097656 L 331.109375 322.109375 L 326.941406 307.003906 L 324.492188 346.269531 L 319.894531 346.199219 L 319.878906 346.269531 L 321.664062 347.445312 L 330.140625 353.042969 C 331.957031 354.066406 333.867188 354.910156 335.847656 355.566406 L 343.109375 357.976562 C 344.296875 358.371094 345.101562 359.484375 345.101562 360.734375 C 345.101562 362.285156 343.878906 363.566406 342.328125 363.632812 L 304.757812 363.511719 C 303.132812 356.191406 304.421875 350.410156 304.421875 350.410156 L 304.320312 345.964844 L 304.066406 334.886719 L 249.753906 334.886719 L 249.753906 335.253906 L 263.953125 335.253906 C 271.679688 335.253906 278.128906 340.707031 279.671875 347.972656 C 283.085938 348.828125 285.621094 351.914062 285.621094 355.59375 C 285.621094 359.941406 282.101562 363.460938 277.757812 363.460938 C 273.414062 363.460938 269.890625 359.941406 269.890625 355.59375 C 269.890625 352.691406 271.46875 350.164062 273.808594 348.800781 C 272.679688 344.40625 268.695312 341.144531 263.957031 341.144531 L 229.503906 341.144531 C 224.78125 341.144531 220.808594 344.382812 219.664062 348.753906 C 222.042969 350.105469 223.652344 352.660156 223.652344 355.59375 C 223.652344 359.9375 220.132812 363.460938 215.789062 363.460938 C 211.445312 363.460938 207.925781 359.941406 207.925781 355.59375 C 207.925781 351.945312 210.414062 348.882812 213.78125 347.996094 C 215.316406 340.71875 221.769531 335.25 229.503906 335.25 L 243.789062 335.25 L 243.789062 334.886719 L 75.964844 334.886719 L 50.019531 213.585938 L 16.316406 245.957031 C 13.613281 248.550781 9.324219 248.460938 6.730469 245.761719 L 2.621094 241.476562 C 0.0273438 238.777344 0.117188 234.484375 2.816406 231.890625 L 45.226562 191.160156 L 6.789062 11.464844 L 249.644531 11.464844 L 278.746094 147.519531 L 279.964844 147.507812 C 281.636719 147.492188 283.210938 148.273438 284.207031 149.613281 L 285.121094 150.84375 C 286.109375 152.171875 286.777344 153.707031 287.078125 155.335938 L 288.324219 162.109375 C 288.324219 162.109375 307.910156 185.191406 310.160156 196.34375 C 311.898438 204.960938 308.367188 209.199219 298.203125 207.925781 C 296.089844 207.660156 293.757812 207.082031 291.316406 206.292969 L 295.730469 226.941406 C 306.519531 224.808594 318.757812 222.511719 321.1875 222.574219 C 321.1875 222.574219 321.191406 222.574219 321.191406 222.574219 C 321.71875 222.570312 322.230469 222.625 322.730469 222.730469 C 331.222656 224.09375 333.785156 234.949219 336.945312 251.320312 C 336.945312 251.324219 336.949219 251.332031 336.949219 251.339844 C 339.78125 266.011719 349.113281 316.464844 349.113281 316.46875 L 351.589844 318.101562 L 360.0625 323.699219 C 361.878906 324.722656 363.792969 325.566406 365.769531 326.222656 L 373.035156 328.632812 C 374.222656 329.027344 375.023438 330.140625 375.023438 331.390625 Z M 375.023438 331.390625 " fill-opacity="1" fill-rule="nonzero"/></g><path fill="#fec045" d="M 144.789062 235.65625 L 159.550781 304.667969 L 90.179688 304.667969 L 75.417969 235.65625 Z M 57.445312 154.632812 L 61.847656 175.199219 L 83.257812 154.632812 Z M 129.695312 168.074219 C 122.246094 165.78125 115.136719 162.152344 108.738281 157.195312 L 66.640625 197.621094 L 72.207031 223.640625 L 141.578125 223.640625 Z M 95.238281 143.128906 C 80.710938 122.699219 79.179688 95.941406 90.394531 74.191406 L 40.433594 74.191406 L 55.195312 143.203125 L 95.164062 143.203125 Z M 310.160156 196.34375 C 307.910156 185.191406 288.324219 162.109375 288.324219 162.109375 L 275.34375 165.503906 L 267.289062 160.148438 L 259.042969 156.9375 C 258.234375 156.625 257.980469 155.601562 258.550781 154.949219 L 258.917969 154.527344 C 259.046875 154.375 259.203125 154.253906 259.355469 154.132812 C 259.347656 154.128906 259.339844 154.128906 259.332031 154.128906 C 259.160156 154.101562 258.972656 154.082031 258.773438 154.066406 C 258.742188 154.0625 258.707031 154.058594 258.675781 154.058594 C 257.378906 153.949219 255.675781 153.964844 254.890625 153.953125 L 239.164062 153.902344 C 239.164062 153.902344 230.242188 154.929688 222.078125 159.15625 C 218.933594 160.785156 215.90625 162.890625 213.539062 165.589844 C 213.371094 165.78125 213.203125 165.972656 213.039062 166.167969 C 212.890625 166.351562 212.738281 166.550781 212.585938 166.746094 C 210.453125 169.453125 208.15625 173.019531 205.898438 176.980469 C 205.679688 177.363281 205.464844 177.746094 205.246094 178.132812 C 203.402344 181.445312 201.605469 184.992188 199.972656 188.511719 C 199.796875 188.898438 199.617188 189.28125 199.445312 189.667969 C 199.019531 190.597656 198.609375 191.527344 198.210938 192.449219 C 194.960938 200 192.714844 206.972656 192.714844 210.683594 C 192.714844 216.082031 197.816406 218.113281 201.535156 218.566406 C 202.644531 218.699219 203.820312 218.808594 205.035156 218.902344 C 210.757812 219.328125 217.449219 219.296875 223.113281 219.007812 L 223.007812 230.488281 L 233.6875 230.488281 L 236.105469 218.410156 L 231.613281 218.285156 L 231.71875 205.003906 L 240.183594 198.015625 L 245.21875 172.847656 L 289.816406 172.847656 L 283.710938 203.363281 C 286.28125 204.492188 288.851562 205.5 291.316406 206.292969 C 293.757812 207.082031 296.089844 207.660156 298.203125 207.925781 C 308.371094 209.199219 311.898438 204.960938 310.160156 196.34375 Z M 240.183594 198.015625 L 240.171875 198.078125 Z M 240.183594 198.015625 " fill-opacity="1" fill-rule="nonzero"/><path fill="#7b95f9" d="M 168.632812 49.160156 L 114.222656 151.765625 C 111.675781 149.863281 109.238281 147.75 106.964844 145.382812 C 106.574219 144.976562 106.210938 144.554688 105.832031 144.140625 L 157.613281 46.5 C 161.351562 47.027344 165.039062 47.914062 168.632812 49.160156 Z M 114.21875 151.773438 C 114.4375 151.9375 114.65625 152.101562 114.878906 152.265625 C 114.65625 152.101562 114.441406 151.929688 114.222656 151.765625 Z M 105.011719 143.230469 C 105.199219 143.445312 105.394531 143.660156 105.585938 143.871094 C 105.394531 143.652344 105.214844 143.429688 105.023438 143.210938 Z M 108.65625 62.277344 C 85.953125 84.078125 84.585938 119.71875 105.023438 143.210938 L 156.398438 46.328125 C 139.511719 44.296875 121.882812 49.574219 108.65625 62.277344 Z M 151.085938 163.417969 C 151.480469 163.40625 151.875 163.382812 152.269531 163.363281 C 151.878906 163.382812 151.488281 163.386719 151.097656 163.398438 Z M 191.734375 63.96875 C 185.367188 57.335938 177.808594 52.550781 169.722656 49.566406 L 115.15625 152.464844 C 125.820312 160.121094 138.496094 163.769531 151.09375 163.398438 L 198.945312 73.167969 C 196.886719 69.929688 194.492188 66.84375 191.734375 63.96875 Z M 198.949219 73.164062 L 198.945312 73.167969 C 199.023438 73.285156 199.105469 73.402344 199.183594 73.523438 C 199.105469 73.402344 199.023438 73.285156 198.949219 73.164062 Z M 168.96875 49.277344 C 169.222656 49.367188 169.472656 49.476562 169.722656 49.566406 L 169.734375 49.546875 C 169.480469 49.453125 169.222656 49.367188 168.96875 49.277344 Z M 152.421875 163.355469 C 166.023438 162.648438 179.445312 157.25 190.042969 147.074219 C 210.242188 127.671875 213.558594 97.3125 199.648438 74.304688 Z M 271.046875 172.847656 L 245.21875 172.847656 L 240.171875 198.078125 L 239.164062 203.117188 L 248.472656 203.433594 L 258.773438 203.246094 C 259.898438 203.226562 260.839844 204.089844 260.914062 205.210938 C 260.972656 206.085938 260.523438 206.917969 259.761719 207.347656 L 257.984375 208.34375 L 254.972656 214.570312 C 254.359375 215.835938 253.214844 216.761719 251.851562 217.09375 L 247.585938 218.132812 C 246.128906 218.488281 244.632812 218.648438 243.136719 218.605469 L 236.105469 218.410156 L 233.6875 230.484375 L 278.289062 230.484375 L 283.710938 203.363281 L 289.816406 172.847656 Z M 271.046875 172.847656 " fill-opacity="1" fill-rule="nonzero"/><path fill="#f26b6d" d="M 193.699219 154.054688 C 194.242188 153.566406 194.789062 153.085938 195.320312 152.574219 C 210.484375 138.011719 217.207031 117.917969 215.390625 98.449219 C 215.355469 98.0625 215.320312 97.679688 215.277344 97.296875 C 214.890625 93.800781 214.238281 90.328125 213.296875 86.914062 C 213.191406 86.527344 213.0625 86.148438 212.949219 85.761719 C 211.902344 82.21875 210.566406 78.746094 208.914062 75.382812 C 208.726562 74.996094 208.527344 74.613281 208.328125 74.230469 C 205.464844 68.671875 201.777344 63.425781 197.234375 58.691406 C 186.550781 47.558594 172.886719 40.984375 158.679688 38.980469 C 152.484375 38.105469 146.1875 38.105469 139.984375 38.980469 C 126.667969 40.863281 113.800781 46.769531 103.378906 56.777344 C 97.972656 61.96875 93.652344 67.875 90.394531 74.191406 C 79.179688 95.941406 80.710938 122.699219 95.238281 143.128906 L 95.164062 143.203125 L 83.257812 154.632812 L 61.847656 175.199219 L 45.226562 191.160156 L 2.816406 231.890625 C 0.113281 234.484375 0.0273438 238.777344 2.621094 241.476562 L 6.730469 245.761719 C 9.324219 248.460938 13.613281 248.550781 16.316406 245.957031 L 50.019531 213.585938 L 66.640625 197.621094 L 108.738281 157.195312 C 115.132812 162.152344 122.246094 165.78125 129.691406 168.074219 C 143.777344 172.417969 159.046875 171.996094 172.925781 166.742188 C 173.878906 166.382812 174.824219 165.996094 175.761719 165.589844 C 181.671875 163.035156 187.28125 159.574219 192.394531 155.210938 C 192.835938 154.835938 193.265625 154.445312 193.699219 154.054688 Z M 152.421875 163.355469 C 152.371094 163.359375 152.320312 163.363281 152.269531 163.363281 C 139.285156 164.003906 126.152344 160.355469 115.15625 152.464844 L 115.15625 152.46875 C 115.0625 152.402344 114.972656 152.332031 114.878906 152.261719 C 112.089844 150.238281 109.433594 147.953125 106.964844 145.382812 C 106.574219 144.976562 106.210938 144.554688 105.832031 144.140625 L 105.832031 144.144531 C 105.75 144.054688 105.667969 143.960938 105.585938 143.871094 C 84.546875 120.390625 85.742188 84.285156 108.65625 62.277344 C 121.882812 49.574219 139.511719 44.296875 156.398438 46.328125 L 156.402344 46.324219 C 156.808594 46.375 157.210938 46.4375 157.617188 46.496094 L 157.613281 46.5 C 161.351562 47.027344 165.039062 47.914062 168.632812 49.160156 L 168.636719 49.15625 C 168.746094 49.195312 168.855469 49.234375 168.96875 49.273438 C 177.339844 52.234375 185.167969 57.125 191.734375 63.96875 C 194.59375 66.949219 197.074219 70.152344 199.183594 73.519531 C 199.34375 73.777344 199.496094 74.035156 199.652344 74.292969 L 199.648438 74.304688 C 213.558594 97.308594 210.242188 127.671875 190.042969 147.074219 C 179.445312 157.25 166.023438 162.648438 152.421875 163.355469 Z M 293.414062 276.402344 C 294.699219 277.914062 295.476562 279.875 295.476562 282.015625 C 295.476562 286.808594 291.589844 290.699219 286.796875 290.699219 L 205.925781 290.699219 L 205.648438 290.769531 L 203.445312 282.226562 L 203.144531 281.070312 L 200.46875 270.691406 L 200.171875 269.539062 L 197.492188 259.160156 L 197.195312 258.003906 L 194.542969 247.71875 L 194.242188 246.566406 L 191.566406 236.1875 L 191.269531 235.035156 L 182.539062 201.199219 L 182.242188 200.046875 L 181.242188 196.175781 C 180.652344 193.882812 181.035156 191.566406 182.132812 189.667969 C 182.367188 189.261719 182.640625 188.875 182.9375 188.511719 C 184.066406 187.128906 185.621094 186.078125 187.480469 185.597656 C 190.863281 184.722656 194.289062 185.976562 196.363281 188.511719 C 196.660156 188.871094 196.925781 189.257812 197.160156 189.667969 C 197.542969 190.332031 197.855469 191.054688 198.054688 191.835938 L 198.210938 192.445312 C 194.960938 200 192.714844 206.972656 192.714844 210.683594 C 192.714844 216.082031 197.816406 218.113281 201.535156 218.566406 C 202.644531 218.699219 203.820312 218.808594 205.039062 218.902344 L 209.199219 235.035156 L 209.496094 236.1875 L 212.175781 246.566406 L 212.472656 247.722656 L 215.125 258.007812 L 215.421875 259.160156 L 218.101562 269.539062 L 218.398438 270.691406 L 219.078125 273.332031 L 235.863281 273.332031 C 250.746094 278.089844 278.835938 277.246094 293.414062 276.402344 Z M 351.589844 318.101562 C 350.265625 319.292969 348.902344 321.050781 348.203125 323.578125 L 334.40625 321.078125 L 349.113281 316.46875 C 349.113281 316.464844 339.785156 266.011719 336.949219 251.339844 C 336.949219 251.332031 336.949219 251.328125 336.945312 251.320312 C 336.949219 251.328125 336.949219 251.332031 336.949219 251.339844 C 339.785156 266.011719 349.113281 316.464844 349.113281 316.46875 Z M 321.195312 222.574219 C 321.722656 222.570312 322.234375 222.628906 322.734375 222.730469 C 322.238281 222.652344 321.726562 222.589844 321.1875 222.578125 C 321.191406 222.574219 321.191406 222.574219 321.195312 222.574219 Z M 319.878906 346.269531 L 321.664062 347.445312 C 320.339844 348.632812 318.976562 350.394531 318.273438 352.921875 L 304.417969 350.410156 L 304.316406 345.964844 L 319.890625 346.199219 Z M 261.691406 153.441406 C 260.84375 153.347656 260.011719 153.609375 259.355469 154.128906 C 259.203125 154.25 259.046875 154.375 258.917969 154.527344 L 258.550781 154.945312 C 257.980469 155.601562 258.234375 156.621094 259.042969 156.9375 L 267.289062 160.148438 L 275.34375 165.503906 L 288.324219 162.105469 L 287.078125 155.335938 C 286.777344 153.707031 286.109375 152.167969 285.121094 150.839844 L 284.210938 149.613281 C 283.214844 148.273438 281.636719 147.492188 279.964844 147.507812 L 278.746094 147.519531 L 270.664062 147.605469 C 268.980469 147.621094 267.570312 148.882812 267.359375 150.554688 L 267.320312 150.855469 L 267.3125 150.859375 L 267.289062 151.058594 L 266.894531 154.984375 L 263.4375 153.636719 Z M 282.679688 157.046875 L 287.367188 160.90625 L 281.304688 160.589844 L 273.050781 157.378906 C 274.214844 157.136719 275.492188 155.445312 276.128906 154.5 Z M 230.011719 138.449219 C 229.128906 136.097656 230.304688 132.730469 233.6875 132.828125 C 233.886719 132.832031 234.085938 132.84375 234.296875 132.875 C 234.839844 132.953125 235.328125 133.089844 235.777344 133.265625 L 241.734375 123.449219 C 250.703125 123.089844 255.886719 129.820312 257.921875 133.21875 C 258.335938 133.066406 258.789062 132.945312 259.285156 132.875 C 259.441406 132.851562 259.589844 132.847656 259.742188 132.839844 C 263.238281 132.640625 264.464844 136.066406 263.570312 138.453125 C 262.535156 141.21875 260.410156 142.324219 258.863281 142.769531 C 258.679688 144.382812 258.101562 145.875 257.21875 147.144531 L 252.695312 145.386719 C 251.71875 145.003906 250.617188 145.488281 250.238281 146.46875 C 250.097656 146.820312 250.078125 147.191406 250.148438 147.539062 C 250.277344 148.148438 250.695312 148.683594 251.320312 148.925781 L 254.890625 150.316406 L 254.890625 153.953125 L 239.164062 153.902344 L 239.164062 149.496094 C 237.035156 147.980469 235.554688 145.617188 235.210938 142.898438 C 234.175781 142.667969 232.71875 142.125 231.519531 140.871094 C 230.925781 140.25 230.390625 139.46875 230.011719 138.449219 Z M 240.171875 198.078125 L 239.164062 203.117188 L 248.472656 203.433594 L 258.773438 203.246094 C 259.898438 203.226562 260.839844 204.089844 260.914062 205.210938 C 260.972656 206.085938 260.523438 206.917969 259.761719 207.347656 L 257.984375 208.34375 L 254.972656 214.570312 C 254.359375 215.835938 253.214844 216.761719 251.851562 217.09375 L 247.585938 218.132812 C 246.128906 218.488281 244.632812 218.648438 243.136719 218.605469 L 236.105469 218.410156 L 231.613281 218.285156 L 231.71875 205.003906 L 240.183594 198.015625 Z M 240.171875 198.078125 " fill-opacity="1" fill-rule="nonzero"/><g clip-path="url(#667f7e0ec2)"><path fill="#4724e3" d="M 139.984375 38.980469 L 32.78125 38.980469 C 32.460938 38.980469 32.203125 38.722656 32.203125 38.402344 C 32.203125 38.085938 32.460938 37.828125 32.78125 37.828125 L 235.175781 37.828125 C 235.496094 37.828125 235.753906 38.085938 235.753906 38.402344 C 235.753906 38.722656 235.496094 38.980469 235.175781 38.980469 L 158.679688 38.980469 C 152.484375 38.105469 146.1875 38.105469 139.984375 38.980469 Z M 172.925781 166.742188 L 212.585938 166.742188 C 212.738281 166.550781 212.890625 166.351562 213.039062 166.167969 C 213.199219 165.96875 213.371094 165.78125 213.539062 165.589844 L 175.761719 165.589844 C 174.824219 165.996094 173.878906 166.382812 172.925781 166.742188 Z M 215.390625 98.449219 L 247.007812 98.449219 C 247.328125 98.449219 247.585938 98.191406 247.585938 97.871094 C 247.585938 97.554688 247.328125 97.296875 247.007812 97.296875 L 215.277344 97.296875 C 215.320312 97.679688 215.355469 98.0625 215.390625 98.449219 Z M 213.296875 86.914062 L 244.519531 86.914062 C 244.839844 86.914062 245.097656 86.65625 245.097656 86.339844 C 245.097656 86.019531 244.839844 85.761719 244.519531 85.761719 L 212.949219 85.761719 C 213.066406 86.144531 213.191406 86.527344 213.296875 86.914062 Z M 208.917969 75.382812 L 242.308594 75.382812 C 242.625 75.382812 242.882812 75.125 242.882812 74.804688 C 242.882812 74.488281 242.625 74.226562 242.308594 74.226562 L 208.328125 74.226562 C 208.527344 74.613281 208.726562 74.996094 208.917969 75.382812 Z M 266.894531 154.984375 L 267.289062 151.0625 L 257.21875 147.144531 L 252.695312 145.382812 C 251.714844 145.003906 250.617188 145.488281 250.234375 146.464844 C 250.097656 146.820312 250.078125 147.191406 250.148438 147.539062 C 250.277344 148.148438 250.695312 148.683594 251.316406 148.925781 L 254.890625 150.316406 L 263.4375 153.636719 Z M 222.074219 159.15625 C 230.242188 154.929688 239.164062 153.902344 239.164062 153.902344 L 239.164062 149.496094 C 237.035156 147.976562 235.554688 145.617188 235.210938 142.898438 C 234.171875 142.664062 232.71875 142.121094 231.515625 140.871094 C 228.003906 143.757812 223.277344 148.535156 222.078125 154.058594 L 193.699219 154.058594 C 193.265625 154.445312 192.835938 154.835938 192.394531 155.210938 L 221.882812 155.210938 C 221.726562 156.496094 221.769531 157.816406 222.074219 159.15625 Z M 182.9375 188.511719 L 150.878906 188.511719 C 150.558594 188.511719 150.300781 188.769531 150.300781 189.089844 C 150.300781 189.40625 150.558594 189.664062 150.878906 189.664062 L 182.132812 189.664062 C 182.367188 189.257812 182.640625 188.875 182.9375 188.511719 Z M 287.367188 160.90625 L 282.679688 157.046875 L 276.128906 154.5 C 275.492188 155.445312 274.214844 157.136719 273.050781 157.375 L 281.304688 160.585938 Z M 258.777344 154.0625 C 258.761719 154.0625 258.753906 154.054688 258.738281 154.054688 L 258.675781 154.054688 C 258.710938 154.058594 258.742188 154.0625 258.777344 154.0625 Z M 233.6875 128.769531 L 233.6875 132.828125 C 233.882812 132.832031 234.085938 132.84375 234.296875 132.875 C 234.839844 132.953125 235.328125 133.089844 235.773438 133.265625 L 241.734375 123.449219 C 250.703125 123.089844 255.886719 129.820312 257.921875 133.21875 C 258.335938 133.066406 258.789062 132.945312 259.285156 132.875 C 259.441406 132.851562 259.589844 132.847656 259.738281 132.839844 L 259.738281 128.769531 C 259.738281 122.65625 254.785156 117.699219 248.675781 117.699219 L 244.753906 117.699219 C 238.640625 117.699219 233.6875 122.65625 233.6875 128.769531 Z M 200.171875 269.539062 L 169.71875 269.539062 C 169.402344 269.539062 169.144531 269.796875 169.144531 270.113281 C 169.144531 270.433594 169.402344 270.691406 169.71875 270.691406 L 200.46875 270.691406 Z M 182.242188 200.046875 L 153.367188 200.046875 C 153.050781 200.046875 152.792969 200.304688 152.792969 200.621094 C 152.792969 200.941406 153.050781 201.199219 153.367188 201.199219 L 182.539062 201.199219 Z M 148.089844 177.554688 C 148.089844 177.875 148.347656 178.132812 148.664062 178.132812 L 205.246094 178.132812 C 205.464844 177.742188 205.679688 177.359375 205.898438 176.980469 L 148.664062 176.980469 C 148.347656 176.976562 148.089844 177.238281 148.089844 177.554688 Z M 336.949219 251.339844 C 336.949219 251.332031 336.949219 251.328125 336.945312 251.320312 C 333.785156 234.953125 331.226562 224.09375 322.734375 222.730469 C 322.234375 222.652344 321.726562 222.589844 321.1875 222.578125 C 318.757812 222.515625 306.519531 224.808594 295.734375 226.945312 C 286.476562 228.773438 278.289062 230.488281 278.289062 230.488281 L 223.007812 230.488281 C 223.007812 230.488281 222.582031 232.234375 222.144531 235.03125 L 209.199219 235.03125 L 209.496094 236.1875 L 221.976562 236.1875 C 221.582031 239.003906 221.230469 242.632812 221.246094 246.566406 L 212.175781 246.566406 L 212.472656 247.71875 L 221.257812 247.71875 C 221.332031 251.082031 221.699219 254.613281 222.539062 258.003906 L 215.125 258.003906 L 215.421875 259.15625 L 222.84375 259.15625 C 223.816406 262.597656 225.3125 265.851562 227.554688 268.578125 C 227.828125 268.910156 228.144531 269.230469 228.488281 269.539062 L 218.101562 269.539062 L 218.398438 270.691406 L 229.996094 270.691406 C 231.570312 271.71875 233.558594 272.589844 235.863281 273.328125 C 250.746094 278.089844 278.835938 277.246094 293.414062 276.402344 C 299.089844 276.074219 302.722656 275.742188 302.726562 275.742188 L 304.066406 334.886719 L 304.316406 345.964844 L 319.890625 346.199219 L 324.492188 346.269531 L 326.9375 307.003906 L 331.109375 322.109375 L 334.335938 321.097656 L 334.402344 321.078125 L 349.113281 316.46875 C 349.113281 316.464844 339.785156 266.011719 336.949219 251.339844 Z M 279.671875 347.972656 C 278.128906 340.707031 271.679688 335.25 263.953125 335.25 L 249.753906 335.25 L 249.753906 290.695312 L 243.789062 290.695312 L 243.789062 335.25 L 229.503906 335.25 C 221.769531 335.25 215.316406 340.71875 213.78125 347.996094 C 210.410156 348.882812 207.925781 351.945312 207.925781 355.59375 C 207.925781 359.9375 211.445312 363.460938 215.789062 363.460938 C 220.132812 363.460938 223.652344 359.941406 223.652344 355.59375 C 223.652344 352.660156 222.042969 350.105469 219.664062 348.753906 C 220.808594 344.382812 224.78125 341.144531 229.503906 341.144531 L 263.953125 341.144531 C 268.695312 341.144531 272.675781 344.402344 273.808594 348.800781 C 271.46875 350.160156 269.890625 352.691406 269.890625 355.59375 C 269.890625 359.941406 273.414062 363.460938 277.757812 363.460938 C 282.101562 363.460938 285.621094 359.941406 285.621094 355.59375 C 285.621094 351.910156 283.085938 348.828125 279.671875 347.972656 Z M 172.210938 281.070312 C 171.890625 281.070312 171.632812 281.328125 171.632812 281.648438 C 171.632812 281.96875 171.890625 282.226562 172.210938 282.226562 L 203.445312 282.226562 L 203.144531 281.070312 Z M 199.972656 188.511719 L 196.363281 188.511719 C 196.660156 188.871094 196.925781 189.257812 197.160156 189.664062 L 199.445312 189.664062 C 199.617188 189.28125 199.796875 188.898438 199.972656 188.511719 Z M 191.269531 235.03125 L 163.105469 235.03125 C 162.785156 235.03125 162.527344 235.292969 162.527344 235.609375 C 162.527344 235.929688 162.785156 236.1875 163.105469 236.1875 L 191.566406 236.1875 Z M 194.242188 246.566406 L 165.316406 246.566406 C 165 246.566406 164.742188 246.824219 164.742188 247.144531 C 164.742188 247.460938 165 247.71875 165.316406 247.71875 L 194.542969 247.71875 Z M 197.195312 258.003906 L 167.507812 258.003906 C 167.1875 258.003906 166.929688 258.261719 166.929688 258.582031 C 166.929688 258.898438 167.1875 259.15625 167.507812 259.15625 L 197.492188 259.15625 Z M 197.195312 258.003906 " fill-opacity="1" fill-rule="nonzero"/></g></svg>